<?xml version="1.0" encoding="UTF-8" standalone="no"?>
<!DOCTYPE svg PUBLIC "-//W3C//DTD SVG 1.1//EN" "http://www.w3.org/Graphics/SVG/1.1/DTD/svg11.dtd">
<svg xmlns="http://www.w3.org/2000/svg" version="1.1" viewBox="0.00 0.00 1000.00 170.00">
<path fill="#8b0f32" d="
  M 81.76 121.00
  C 78.50 120.95 78.10 116.75 77.41 114.48
  Q 65.36 75.19 53.86 35.76
  C 50.79 25.21 58.45 15.84 68.55 13.86
  C 84.59 10.71 117.36 10.92 109.55 37.81
  Q 98.03 77.46 86.18 117.02
  C 85.49 119.33 84.12 121.03 81.76 121.00
  Z"
/>
<path fill="#8b0f32" d="
  M 120.99 40.75
  C 123.23 33.26 130.42 29.69 136.33 36.42
  C 173.47 78.65 153.18 144.37 98.27 157.29
  C 92.22 158.71 89.11 151.71 89.59 146.99
  Q 89.64 146.49 91.87 138.89
  Q 106.29 89.78 120.99 40.75
  Z"
/>
<path fill="#8b0f32" d="
  M 40.54 145.66
  Q 12.29 125.46 9.29 91.95
  C 7.55 72.61 13.74 53.75 25.98 38.74
  C 31.95 31.42 39.77 30.41 42.94 40.70
  Q 59.35 93.91 75.28 147.24
  C 76.86 152.52 73.76 158.49 67.74 157.51
  Q 53.98 155.27 40.54 145.66
  Z"
/>
<path fill="#174950" d="
  M 393.00 112.75
  L 438.02 112.75
  Q 438.57 112.75 438.89 112.30
  Q 439.77 111.05 439.68 109.38
  A 0.52 0.51 -4.9 0 1 440.13 108.85
  L 441.07 108.73
  Q 441.75 108.64 441.75 109.33
  L 441.75 132.46
  A 0.77 0.76 -10.7 0 1 441.26 133.17
  Q 440.39 133.49 439.95 132.81
  Q 439.67 132.39 439.57 131.89
  Q 439.19 129.99 437.50 129.99
  Q 402.78 130.01 368.06 130.00
  Q 367.46 130.00 367.49 129.41
  L 367.53 128.63
  A 0.69 0.69 0.0 0 1 368.29 127.98
  Q 369.78 128.12 370.84 127.24
  Q 371.25 126.90 371.25 126.36
  L 371.25 59.58
  Q 371.25 58.98 370.68 58.80
  L 368.01 57.93
  Q 367.64 57.81 367.47 57.45
  L 367.26 57.02
  A 0.72 0.72 0.0 0 1 367.91 56.00
  Q 402.93 56.00 437.96 56.00
  Q 438.49 56.00 438.82 55.60
  Q 439.77 54.43 439.75 52.75
  Q 439.74 52.29 440.20 52.28
  L 441.11 52.24
  Q 441.75 52.22 441.75 52.86
  L 441.75 76.18
  Q 441.75 76.54 441.40 76.65
  C 439.11 77.34 439.92 74.45 438.57 73.15
  Q 438.16 72.75 437.59 72.75
  L 393.00 72.75
  A 0.50 0.50 0.0 0 0 392.50 73.25
  L 392.50 83.98
  Q 392.50 84.48 392.99 84.48
  Q 405.24 84.55 417.44 84.46
  C 419.74 84.44 421.83 84.04 422.46 81.73
  A 1.04 1.04 0.0 0 1 424.50 82.00
  L 424.50 102.50
  A 1.07 1.07 0.0 0 1 422.39 102.78
  C 421.78 100.46 420.08 100.04 417.78 100.03
  Q 405.37 99.97 393.00 100.01
  A 0.50 0.50 0.0 0 0 392.50 100.51
  L 392.50 112.25
  Q 392.50 112.75 393.00 112.75
  Z"
/>
<path fill="#e60234" d="
  M 866.51 87.31
  C 860.51 76.13 865.30 62.69 877.39 58.03
  C 890.67 52.91 911.06 55.15 916.53 70.71
  A 0.76 0.76 0.0 0 1 915.99 71.71
  L 904.33 74.55
  Q 903.87 74.66 903.70 74.22
  Q 901.45 68.54 895.33 66.96
  C 889.52 65.46 880.28 66.30 878.23 73.04
  C 876.52 78.68 881.02 81.71 886.32 83.26
  C 900.78 87.50 920.35 88.77 919.48 108.88
  C 918.55 130.69 892.43 134.42 876.62 129.03
  C 868.08 126.12 863.35 121.52 860.30 113.22
  Q 859.95 112.26 860.95 112.04
  L 872.70 109.49
  Q 873.16 109.39 873.28 109.84
  C 876.42 121.10 893.55 123.30 901.79 117.41
  C 908.20 112.82 905.40 103.80 897.94 101.81
  Q 889.46 99.56 881.00 97.25
  C 874.48 95.47 869.81 93.46 866.51 87.31
  Z"
/>
<path fill="#174950" d="
  M 218.18 101.03
  A 0.40 0.40 0.0 0 0 218.91 101.03
  L 237.20 60.55
  A 1.74 1.74 0.0 0 0 236.07 58.15
  Q 235.31 57.95 235.07 57.14
  A 0.88 0.88 0.0 0 1 235.91 56.00
  L 258.80 56.00
  A 0.95 0.95 0.0 0 1 259.42 57.67
  C 258.40 58.56 258.08 58.70 257.52 60.02
  Q 244.84 89.82 232.08 119.57
  Q 231.03 122.04 229.33 126.87
  Q 229.17 127.30 229.58 127.50
  L 231.19 128.32
  A 0.89 0.89 0.0 0 1 230.78 130.00
  L 202.75 130.00
  A 0.82 0.82 0.0 0 1 202.34 128.46
  L 203.95 127.53
  A 0.75 0.74 -26.4 0 0 204.27 126.59
  L 175.05 59.51
  Q 174.80 58.93 174.23 58.68
  Q 172.95 58.11 172.97 56.69
  Q 172.98 56.00 173.67 56.00
  L 201.19 56.00
  A 0.96 0.96 0.0 0 1 201.35 57.90
  Q 200.05 58.12 199.24 59.00
  A 0.89 0.88 -36.7 0 0 199.09 59.97
  L 218.18 101.03
  Z"
/>
<path fill="#174950" d="
  M 299.75 112.75
  L 348.02 112.75
  A 0.95 0.94 -73.4 0 0 348.81 112.32
  C 349.52 111.24 349.29 108.20 351.31 109.09
  Q 351.75 109.28 351.75 109.76
  L 351.75 133.14
  A 0.62 0.62 0.0 0 1 351.11 133.76
  L 350.11 133.72
  A 0.56 0.56 0.0 0 1 349.57 133.16
  C 349.59 131.06 348.67 130.00 346.50 130.00
  Q 310.49 130.00 274.74 130.00
  A 0.79 0.79 0.0 0 1 274.25 128.59
  Q 275.25 127.80 276.54 127.75
  A 1.52 1.52 0.0 0 0 278.00 126.23
  L 278.00 60.17
  Q 278.00 59.60 277.60 59.21
  C 276.50 58.15 273.19 58.52 274.08 56.44
  Q 274.27 56.00 274.75 56.00
  L 302.57 56.00
  A 0.70 0.70 0.0 0 1 303.26 56.57
  L 303.32 56.89
  Q 303.44 57.52 302.85 57.75
  L 299.83 58.91
  Q 299.25 59.13 299.25 59.76
  L 299.25 112.25
  Q 299.25 112.75 299.75 112.75
  Z"
/>
<path fill="#174950" d="
  M 514.47 114.00
  L 482.75 114.00
  Q 482.21 114.00 482.03 114.51
  L 477.62 126.91
  Q 477.44 127.42 477.95 127.60
  L 480.03 128.37
  A 0.84 0.84 0.0 0 1 479.73 130.00
  L 455.78 130.00
  A 0.87 0.87 0.0 0 1 455.50 128.31
  C 457.26 127.70 458.25 126.54 458.95 124.73
  Q 471.47 92.27 483.68 59.69
  A 0.77 0.76 34.4 0 0 483.53 58.90
  Q 482.85 58.14 481.76 58.26
  A 0.67 0.65 -3.7 0 1 481.03 57.63
  L 480.99 56.60
  Q 480.97 56.00 481.56 56.00
  Q 499.29 55.99 517.00 56.00
  Q 518.02 56.00 517.94 57.14
  Q 517.91 57.47 517.63 57.63
  L 515.49 58.84
  Q 514.85 59.21 515.13 59.90
  Q 527.32 90.49 539.84 120.92
  C 540.94 123.58 541.89 127.56 544.44 128.13
  A 0.95 0.94 51.2 0 1 544.24 130.00
  L 517.73 130.00
  A 0.82 0.82 0.0 0 1 517.41 128.43
  L 519.26 127.63
  A 0.96 0.95 68.0 0 0 519.78 126.40
  L 515.22 114.52
  A 0.81 0.80 79.3 0 0 514.47 114.00
  Z
  M 485.86 102.52
  A 0.30 0.30 0.0 0 0 486.15 102.93
  L 510.92 102.58
  A 0.30 0.30 0.0 0 0 511.19 102.17
  L 498.36 70.58
  A 0.30 0.30 0.0 0 0 497.80 70.59
  L 485.86 102.52
  Z"
/>
<path fill="#174950" d="
  M 565.09 58.92
  C 564.17 58.03 561.23 58.58 562.06 56.49
  Q 562.25 56.02 562.76 56.02
  Q 587.26 55.94 611.75 56.06
  C 626.31 56.13 640.63 58.27 642.56 75.94
  C 644.23 91.21 636.49 97.40 623.62 102.45
  Q 623.08 102.66 623.41 103.14
  Q 631.58 114.80 639.79 126.30
  C 640.69 127.56 641.74 127.81 643.03 128.38
  A 0.85 0.85 0.0 0 1 642.69 130.00
  L 614.61 130.00
  A 0.61 0.60 1.8 0 1 614.00 129.36
  L 614.03 128.61
  A 0.55 0.55 0.0 0 1 614.57 128.09
  Q 616.86 128.07 617.05 125.95
  Q 617.11 125.31 616.73 124.80
  L 600.69 102.65
  Q 600.40 102.25 599.90 102.25
  L 587.63 102.25
  Q 587.00 102.25 587.00 102.88
  L 587.00 126.40
  Q 587.00 127.06 587.62 127.29
  L 590.54 128.34
  Q 590.93 128.48 591.01 128.88
  C 591.17 129.66 590.71 129.97 589.98 129.98
  Q 576.32 130.05 562.67 129.98
  Q 562.16 129.98 562.03 129.49
  C 561.55 127.71 564.30 128.09 565.43 126.97
  Q 565.75 126.66 565.75 126.22
  L 565.75 60.46
  Q 565.75 59.55 565.09 58.92
  Z
  M 586.99 72.49
  L 587.01 87.03
  A 0.47 0.47 0.0 0 0 587.48 87.50
  L 611.39 87.46
  A 9.62 7.01 -0.1 0 0 621.00 80.43
  L 621.00 78.97
  A 9.62 7.01 -0.1 0 0 611.37 71.98
  L 587.46 72.02
  A 0.47 0.47 0.0 0 0 586.99 72.49
  Z"
/>
<path fill="#174950" d="
  M 685.78 82.74
  Q 685.69 103.19 685.76 123.79
  Q 685.77 125.87 686.17 126.65
  C 686.95 128.20 690.32 127.82 689.91 129.40
  A 0.81 0.79 -82.4 0 1 689.14 130.00
  L 663.52 130.00
  Q 662.97 130.00 663.01 129.45
  L 663.08 128.58
  Q 663.13 127.91 663.80 127.97
  C 666.34 128.23 666.99 126.73 667.00 124.45
  Q 667.02 94.12 666.98 63.80
  C 666.97 60.58 667.29 58.21 663.30 57.76
  A 0.64 0.64 0.0 0 1 662.72 57.09
  Q 662.76 56.10 663.82 56.09
  Q 680.08 55.98 696.29 55.99
  A 0.97 0.97 0.0 0 1 696.52 57.91
  L 694.00 58.52
  A 1.17 1.17 0.0 0 0 693.37 60.40
  C 703.84 73.05 715.41 84.98 726.48 97.07
  A 0.31 0.30 -66.4 0 0 727.01 96.86
  Q 727.02 79.21 726.86 61.49
  Q 726.83 58.52 724.40 57.81
  A 0.93 0.92 53.0 0 1 724.65 56.00
  Q 736.75 55.98 748.75 56.07
  Q 750.40 56.08 749.83 57.57
  A 1.03 1.02 -76.6 0 1 748.77 58.23
  Q 745.77 57.94 745.77 61.25
  Q 745.74 92.52 745.75 123.79
  Q 745.75 125.86 746.16 126.65
  C 746.95 128.19 750.36 127.83 749.89 129.43
  A 0.79 0.78 7.7 0 1 749.13 130.00
  L 723.73 130.00
  A 0.87 0.87 0.0 0 1 723.53 128.29
  L 725.20 127.90
  A 1.26 1.25 62.0 0 0 725.83 125.83
  L 686.10 82.61
  A 0.19 0.18 -66.6 0 0 685.78 82.74
  Z"
/>
<rect fill="#e60234" x="772.25" y="56.50" width="13.50" height="73.50" rx="0.51"/>
<path fill="#e60234" d="
  M 818.54 56.50
  L 834.32 56.50
  A 0.50 0.50 0.0 0 1 834.79 56.84
  L 859.12 129.34
  A 0.50 0.50 0.0 0 1 858.64 130.00
  L 845.23 130.00
  A 0.50 0.50 0.0 0 1 844.76 129.66
  L 839.25 113.09
  A 0.50 0.50 0.0 0 0 838.78 112.75
  L 811.48 112.75
  A 0.50 0.50 0.0 0 0 811.01 113.09
  L 805.50 129.66
  A 0.50 0.50 0.0 0 1 805.03 130.00
  L 794.49 129.99
  A 0.50 0.50 0.0 0 1 794.02 129.33
  L 818.07 56.84
  A 0.50 0.50 0.0 0 1 818.54 56.50
  Z
  M 814.65 101.34
  A 0.31 0.31 0.0 0 0 814.94 101.75
  L 834.98 101.75
  A 0.31 0.31 0.0 0 0 835.27 101.34
  L 825.25 70.61
  A 0.31 0.31 0.0 0 0 824.67 70.61
  L 814.65 101.34
  Z"
/>
</svg>
